<svg xmlns="http://www.w3.org/2000/svg" viewBox="0 0 1200 675" role="img" aria-labelledby="title desc">
  <title id="title">Dashboard overview mock</title>
  <desc id="desc">Light dashboard layout with KPI cards and buyer table.</desc>
  <defs>
    <linearGradient id="panel" x1="0" x2="1" y1="0" y2="1">
      <stop offset="0%" stop-color="#ffffff" />
      <stop offset="100%" stop-color="#f1f5f9" />
    </linearGradient>
    <linearGradient id="bar" x1="0" x2="1" y1="0" y2="0">
      <stop offset="0%" stop-color="#2563eb" />
      <stop offset="100%" stop-color="#22c55e" />
    </linearGradient>
  </defs>
  <rect width="1200" height="675" fill="#f8fafc" />
  <rect x="40" y="32" width="1120" height="80" rx="18" fill="#ffffff" stroke="#e2e8f0" />
  <rect x="40" y="124" width="1120" height="250" rx="18" fill="url(#panel)" stroke="#e2e8f0" />
  <rect x="40" y="388" width="1120" height="255" rx="18" fill="#ffffff" stroke="#e2e8f0" />

  <rect x="64" y="52" width="160" height="14" rx="7" fill="#2563eb" opacity="0.2" />
  <rect x="64" y="72" width="200" height="14" rx="7" fill="#94a3b8" opacity="0.6" />

  <rect x="72" y="144" width="220" height="70" rx="14" fill="#ffffff" stroke="#e2e8f0" />
  <rect x="312" y="144" width="220" height="70" rx="14" fill="#ffffff" stroke="#e2e8f0" />
  <rect x="552" y="144" width="220" height="70" rx="14" fill="#ffffff" stroke="#e2e8f0" />
  <rect x="792" y="144" width="320" height="70" rx="14" fill="#ffffff" stroke="#e2e8f0" />

  <rect x="72" y="228" width="1040" height="120" rx="14" fill="#ffffff" stroke="#e2e8f0" />
  <rect x="90" y="248" width="180" height="12" rx="6" fill="#0f172a" opacity="0.75" />
  <rect x="90" y="272" width="140" height="10" rx="5" fill="#94a3b8" />
  <rect x="300" y="248" width="680" height="12" rx="6" fill="#2563eb" opacity="0.15" />
  <rect x="300" y="272" width="520" height="10" rx="5" fill="#94a3b8" opacity="0.8" />
  <rect x="90" y="296" width="940" height="10" rx="5" fill="#e2e8f0" />
  <rect x="90" y="316" width="720" height="10" rx="5" fill="#e2e8f0" />

  <rect x="72" y="408" width="1040" height="40" rx="10" fill="#f8fafc" stroke="#e2e8f0" />
  <rect x="90" y="422" width="120" height="12" rx="6" fill="#0f172a" opacity="0.85" />
  <rect x="240" y="422" width="100" height="12" rx="6" fill="#0f172a" opacity="0.85" />
  <rect x="390" y="422" width="140" height="12" rx="6" fill="#0f172a" opacity="0.85" />
  <rect x="570" y="422" width="120" height="12" rx="6" fill="#0f172a" opacity="0.85" />
  <rect x="720" y="422" width="120" height="12" rx="6" fill="#0f172a" opacity="0.85" />
  <rect x="900" y="422" width="120" height="12" rx="6" fill="#0f172a" opacity="0.85" />

  <rect x="72" y="458" width="1040" height="8" rx="4" fill="#e2e8f0" />
  <rect x="72" y="478" width="1040" height="8" rx="4" fill="#e2e8f0" />
  <rect x="72" y="498" width="1040" height="8" rx="4" fill="#e2e8f0" />
  <rect x="72" y="518" width="1040" height="8" rx="4" fill="#e2e8f0" />
  <rect x="72" y="538" width="1040" height="8" rx="4" fill="#e2e8f0" />

  <rect x="92" y="556" width="260" height="10" rx="5" fill="#2563eb" opacity="0.3" />
  <rect x="392" y="556" width="200" height="10" rx="5" fill="#22c55e" opacity="0.3" />
  <rect x="652" y="556" width="320" height="10" rx="5" fill="#22c55e" opacity="0.2" />
  <rect x="92" y="576" width="220" height="10" rx="5" fill="#2563eb" opacity="0.25" />
  <rect x="392" y="576" width="360" height="10" rx="5" fill="#2563eb" opacity="0.25" />
  <rect x="92" y="596" width="160" height="10" rx="5" fill="#e11d48" opacity="0.2" />
  <rect x="392" y="596" width="260" height="10" rx="5" fill="#2563eb" opacity="0.25" />

  <rect x="72" y="620" width="1040" height="6" rx="3" fill="url(#bar)" />
</svg>
