<svg width="1600" height="1000" viewBox="0 0 1600 1000" xmlns="http://www.w3.org/2000/svg" role="img" aria-label="ListHit dashboard placeholder">
  <defs>
    <linearGradient id="bg" x1="0%" y1="0%" x2="100%" y2="100%">
      <stop offset="0%" stop-color="#0f172a" />
      <stop offset="100%" stop-color="#1e293b" />
    </linearGradient>
  </defs>
  <rect width="1600" height="1000" fill="url(#bg)" rx="24" />
  <rect x="70" y="80" width="380" height="120" rx="18" fill="#111827" stroke="#334155" stroke-width="3" opacity="0.9" />
  <rect x="480" y="80" width="340" height="120" rx="18" fill="#0f172a" stroke="#334155" stroke-width="3" opacity="0.9" />
  <rect x="850" y="80" width="680" height="120" rx="18" fill="#0f172a" stroke="#334155" stroke-width="3" opacity="0.9" />
  <rect x="70" y="230" width="630" height="660" rx="22" fill="#111827" stroke="#334155" stroke-width="3" opacity="0.9" />
  <rect x="730" y="230" width="800" height="660" rx="22" fill="#0b1021" stroke="#334155" stroke-width="3" opacity="0.9" />
  <rect x="760" y="270" width="740" height="210" rx="18" fill="#111827" stroke="#334155" stroke-width="2" />
  <rect x="760" y="520" width="740" height="150" rx="18" fill="#0f172a" stroke="#334155" stroke-width="2" />
  <rect x="760" y="700" width="740" height="150" rx="18" fill="#0f172a" stroke="#334155" stroke-width="2" />
  <circle cx="140" cy="140" r="28" fill="#5b8def" />
  <circle cx="550" cy="140" r="28" fill="#22c55e" />
  <circle cx="910" cy="140" r="28" fill="#fbbf24" />
  <rect x="110" y="280" width="540" height="60" rx="14" fill="#1e293b" />
  <rect x="110" y="360" width="540" height="60" rx="14" fill="#1e293b" />
  <rect x="110" y="440" width="540" height="60" rx="14" fill="#1e293b" />
  <rect x="110" y="520" width="540" height="60" rx="14" fill="#1e293b" />
  <rect x="110" y="600" width="540" height="60" rx="14" fill="#1e293b" />
  <rect x="110" y="680" width="540" height="60" rx="14" fill="#1e293b" />
  <rect x="110" y="760" width="540" height="60" rx="14" fill="#1e293b" />
  <text x="90" y="180" fill="#cbd5e1" font-family="'Inter', 'Segoe UI', sans-serif" font-size="48" font-weight="700">ListHit Dashboard</text>
  <text x="800" y="330" fill="#e5e7eb" font-family="'Inter', 'Segoe UI', sans-serif" font-size="32" font-weight="700">Segments & KPIs</text>
  <text x="800" y="575" fill="#cbd5e1" font-family="'Inter', 'Segoe UI', sans-serif" font-size="28">Top buyers • VIP list • Inactive</text>
  <text x="800" y="755" fill="#cbd5e1" font-family="'Inter', 'Segoe UI', sans-serif" font-size="28">Engagement timeline • Clicks • Replies</text>
</svg>
