<svg xmlns="http://www.w3.org/2000/svg" viewBox="0 0 1200 675" role="img" aria-labelledby="title desc">
  <title id="title">Distribution mock</title>
  <desc id="desc">Messaging view showing audience selection and template preview.</desc>
  <defs>
    <linearGradient id="panel" x1="0" x2="1" y1="0" y2="1">
      <stop offset="0%" stop-color="#ffffff" />
      <stop offset="100%" stop-color="#f8fafc" />
    </linearGradient>
  </defs>
  <rect width="1200" height="675" fill="#f8fafc" />
  <rect x="32" y="28" width="1136" height="70" rx="18" fill="#ffffff" stroke="#e2e8f0" />
  <rect x="32" y="112" width="1136" height="536" rx="20" fill="url(#panel)" stroke="#e2e8f0" />

  <rect x="52" y="136" width="520" height="476" rx="16" fill="#ffffff" stroke="#e2e8f0" />
  <rect x="592" y="136" width="556" height="228" rx="16" fill="#ffffff" stroke="#e2e8f0" />
  <rect x="592" y="382" width="556" height="230" rx="16" fill="#ffffff" stroke="#e2e8f0" />

  <rect x="72" y="154" width="200" height="16" rx="8" fill="#0f172a" opacity="0.8" />
  <rect x="72" y="182" width="160" height="12" rx="6" fill="#2563eb" opacity="0.3" />
  <rect x="72" y="212" width="460" height="12" rx="6" fill="#e2e8f0" />
  <rect x="72" y="234" width="420" height="12" rx="6" fill="#e2e8f0" />
  <rect x="72" y="256" width="300" height="12" rx="6" fill="#e2e8f0" />
  <rect x="72" y="284" width="440" height="180" rx="12" fill="#f8fafc" stroke="#e2e8f0" />
  <rect x="90" y="304" width="200" height="12" rx="6" fill="#0f172a" opacity="0.7" />
  <rect x="90" y="326" width="340" height="10" rx="5" fill="#94a3b8" />
  <rect x="90" y="350" width="360" height="10" rx="5" fill="#2563eb" opacity="0.2" />
  <rect x="90" y="372" width="320" height="10" rx="5" fill="#94a3b8" />
  <rect x="90" y="394" width="300" height="10" rx="5" fill="#94a3b8" />

  <rect x="72" y="482" width="460" height="24" rx="12" fill="#f1f5f9" />
  <rect x="76" y="486" width="220" height="16" rx="8" fill="#2563eb" opacity="0.35" />
  <rect x="312" y="486" width="140" height="16" rx="8" fill="#22c55e" opacity="0.35" />

  <rect x="612" y="154" width="200" height="16" rx="8" fill="#0f172a" opacity="0.8" />
  <rect x="612" y="182" width="340" height="12" rx="6" fill="#2563eb" opacity="0.2" />
  <rect x="612" y="206" width="320" height="12" rx="6" fill="#94a3b8" />
  <rect x="612" y="230" width="500" height="12" rx="6" fill="#e2e8f0" />
  <rect x="612" y="252" width="420" height="12" rx="6" fill="#e2e8f0" />
  <rect x="612" y="274" width="360" height="12" rx="6" fill="#e2e8f0" />
  <rect x="612" y="296" width="500" height="12" rx="6" fill="#e2e8f0" />

  <rect x="612" y="400" width="200" height="16" rx="8" fill="#0f172a" opacity="0.8" />
  <rect x="612" y="428" width="200" height="12" rx="6" fill="#22c55e" opacity="0.25" />
  <rect x="612" y="452" width="460" height="12" rx="6" fill="#e2e8f0" />
  <rect x="612" y="474" width="420" height="12" rx="6" fill="#e2e8f0" />
  <rect x="612" y="496" width="320" height="12" rx="6" fill="#e2e8f0" />
  <rect x="612" y="518" width="500" height="12" rx="6" fill="#e2e8f0" />
  <rect x="612" y="540" width="360" height="12" rx="6" fill="#e2e8f0" />
</svg>
