<svg width="1600" height="1000" viewBox="0 0 1600 1000" xmlns="http://www.w3.org/2000/svg" role="img" aria-label="ListHit messaging placeholder">
  <defs>
    <linearGradient id="bg3" x1="0%" y1="0%" x2="100%" y2="100%">
      <stop offset="0%" stop-color="#0a0f1d" />
      <stop offset="100%" stop-color="#111827" />
    </linearGradient>
  </defs>
  <rect width="1600" height="1000" rx="24" fill="url(#bg3)" />
  <text x="90" y="120" fill="#e2e8f0" font-family="'Inter', 'Segoe UI', sans-serif" font-size="48" font-weight="700">Messaging & Buyer Alerts</text>
  <rect x="90" y="170" width="1420" height="760" rx="22" fill="#0f172a" stroke="#334155" stroke-width="3" />
  <rect x="130" y="220" width="360" height="680" rx="18" fill="#111827" stroke="#334155" stroke-width="2" />
  <rect x="520" y="220" width="930" height="680" rx="18" fill="#0b1021" stroke="#334155" stroke-width="2" />
  <text x="160" y="270" fill="#cbd5e1" font-family="'Inter', 'Segoe UI', sans-serif" font-size="26">Segments</text>
  <rect x="160" y="300" width="300" height="70" rx="14" fill="#1e293b" />
  <rect x="160" y="390" width="300" height="70" rx="14" fill="#1e293b" />
  <rect x="160" y="480" width="300" height="70" rx="14" fill="#1e293b" />
  <rect x="160" y="570" width="300" height="70" rx="14" fill="#1e293b" />
  <rect x="160" y="660" width="300" height="70" rx="14" fill="#1e293b" />
  <text x="550" y="280" fill="#cbd5e1" font-family="'Inter', 'Segoe UI', sans-serif" font-size="26">Compose</text>
  <rect x="550" y="310" width="860" height="70" rx="14" fill="#111827" stroke="#334155" />
  <rect x="550" y="400" width="860" height="230" rx="14" fill="#111827" stroke="#334155" />
  <rect x="550" y="660" width="860" height="200" rx="14" fill="#0f172a" stroke="#334155" />
  <text x="570" y="360" fill="#93c5fd" font-family="'Inter', 'Segoe UI', sans-serif" font-size="24" font-weight="700">New buyer alert: South Florida</text>
  <text x="570" y="450" fill="#e5e7eb" font-family="'Inter', 'Segoe UI', sans-serif" font-size="22">Hi VIP buyers,</text>
  <text x="570" y="490" fill="#e5e7eb" font-family="'Inter', 'Segoe UI', sans-serif" font-size="22">We have a new assignment available with quick close.</text>
  <text x="570" y="740" fill="#cbd5e1" font-family="'Inter', 'Segoe UI', sans-serif" font-size="22">Preview • Unsubscribe will be included automatically</text>
  <circle cx="320" cy="335" r="10" fill="#22c55e" />
  <circle cx="320" cy="425" r="10" fill="#22c55e" />
  <circle cx="320" cy="515" r="10" fill="#f59e0b" />
  <circle cx="320" cy="605" r="10" fill="#ef4444" />
  <circle cx="320" cy="695" r="10" fill="#22c55e" />
</svg>
