<svg width="1600" height="1000" viewBox="0 0 1600 1000" xmlns="http://www.w3.org/2000/svg" role="img" aria-label="ListHit properties and offers placeholder">
  <defs>
    <linearGradient id="bg2" x1="0%" y1="0%" x2="100%" y2="100%">
      <stop offset="0%" stop-color="#0b1021" />
      <stop offset="100%" stop-color="#1f2937" />
    </linearGradient>
  </defs>
  <rect width="1600" height="1000" rx="24" fill="url(#bg2)" />
  <text x="90" y="120" fill="#e2e8f0" font-family="'Inter', 'Segoe UI', sans-serif" font-size="48" font-weight="700">Properties & Offers</text>
  <rect x="90" y="150" width="1420" height="90" rx="18" fill="#111827" stroke="#334155" stroke-width="2" />
  <rect x="90" y="270" width="440" height="640" rx="20" fill="#0f172a" stroke="#334155" stroke-width="3" />
  <rect x="560" y="270" width="460" height="640" rx="20" fill="#0f172a" stroke="#334155" stroke-width="3" />
  <rect x="1040" y="270" width="470" height="640" rx="20" fill="#0f172a" stroke="#334155" stroke-width="3" />
  <text x="130" y="210" fill="#cbd5e1" font-family="'Inter', 'Segoe UI', sans-serif" font-size="26">Filter: Tampa • 3+ bed • Close in 14 days</text>
  <text x="120" y="320" fill="#e5e7eb" font-family="'Inter', 'Segoe UI', sans-serif" font-size="32" font-weight="700">Pipeline</text>
  <text x="590" y="320" fill="#e5e7eb" font-family="'Inter', 'Segoe UI', sans-serif" font-size="32" font-weight="700">Offers</text>
  <text x="1070" y="320" fill="#e5e7eb" font-family="'Inter', 'Segoe UI', sans-serif" font-size="32" font-weight="700">Tasks</text>
  <rect x="120" y="360" width="380" height="110" rx="16" fill="#1e293b" />
  <rect x="120" y="500" width="380" height="110" rx="16" fill="#1e293b" />
  <rect x="120" y="640" width="380" height="110" rx="16" fill="#1e293b" />
  <rect x="120" y="780" width="380" height="110" rx="16" fill="#1e293b" />
  <rect x="590" y="360" width="420" height="140" rx="16" fill="#111827" stroke="#334155" />
  <rect x="590" y="540" width="420" height="140" rx="16" fill="#111827" stroke="#334155" />
  <rect x="590" y="720" width="420" height="140" rx="16" fill="#111827" stroke="#334155" />
  <rect x="1070" y="360" width="410" height="120" rx="16" fill="#1e293b" />
  <rect x="1070" y="520" width="410" height="120" rx="16" fill="#1e293b" />
  <rect x="1070" y="680" width="410" height="120" rx="16" fill="#1e293b" />
  <text x="150" y="420" fill="#93c5fd" font-family="'Inter', 'Segoe UI', sans-serif" font-size="24" font-weight="700">123 Main St • Owner: Dani</text>
  <text x="610" y="420" fill="#a5b4fc" font-family="'Inter', 'Segoe UI', sans-serif" font-size="24" font-weight="700">Offer: $315k • Buyer: VIP Fund</text>
  <text x="1095" y="420" fill="#cbd5e1" font-family="'Inter', 'Segoe UI', sans-serif" font-size="24">Call title company • Due tomorrow</text>
</svg>
